<svg width="28" height="28" viewBox="0 0 28 28" fill="none" xmlns="http://www.w3.org/2000/svg">
<rect width="28" height="28" rx="3" fill="#F9B9B9"/>
<g clip-path="url(#clip0_1_268)">
<path d="M6.5 11.5V9C6.5 7.61929 7.61929 6.5 9 6.5H14.8333M6.5 16.5V19C6.5 20.3807 7.61929 21.5 9 21.5H19C20.3807 21.5 21.5 20.3807 21.5 19V11.5" stroke="#A80000" stroke-width="1.25" stroke-linecap="round"/>
<path d="M19.7754 10.3325L21.959 8.14893C22.4816 7.62634 22.4816 6.77906 21.959 6.25647C21.4364 5.73388 20.5891 5.73388 20.0666 6.25647L19.7026 6.6204L19.3387 6.25647C18.8161 5.73388 17.9688 5.73388 17.4462 6.25647C16.9236 6.77906 16.9236 7.62634 17.4462 8.14893L19.6298 10.3325C19.67 10.3727 19.7352 10.3727 19.7754 10.3325Z" stroke="#A80000" stroke-width="1.25"/>
<path d="M6.5 14H8.58333C8.84563 14 9.09262 13.8765 9.25 13.6667L10.9748 11.367C11.1853 11.0863 11.6272 11.1756 11.7123 11.516L12.9543 16.4841C13.0394 16.8245 13.4814 16.9137 13.6919 16.633L15.4167 14.3334C15.574 14.1235 15.821 14 16.0833 14H19" stroke="#A80000" stroke-width="1.25" stroke-linecap="round" stroke-linejoin="round"/>
</g>
<defs>
<clipPath id="clip0_1_268">
<rect width="20" height="20" fill="white" transform="translate(4 4)"/>
</clipPath>
</defs>
</svg>
