      <svg
        width="18"
        height="18"
        viewBox="0 0 18 18"
        fill="none"
        xmlns="http://www.w3.org/2000/svg"
      >
        <path
          d="M0 7.53393C0 6.57062 0.462591 5.66591 1.24353 5.1019L7.24353 0.768563C8.29207 0.0112796 9.70793 0.0112797 10.7565 0.768563L16.7565 5.1019C17.5374 5.66591 18 6.57062 18 7.53393V16C18 17.1046 17.1046 18 16 18H11C10.4477 18 10 17.5523 10 17V14C10 13.4477 9.55229 13 9 13H6.25C5.69772 13 5.25 13.4477 5.25 14V17C5.25 17.5523 4.80228 18 4.25 18H2C0.89543 18 0 17.1046 0 16V7.53393Z"
          :fill="activeLink === '/home' ? '#192126' : 'white'"
        />
      </svg>