<svg width="28" height="28" viewBox="0 0 28 28" fill="none" xmlns="http://www.w3.org/2000/svg">
<rect width="28" height="28" rx="3" fill="#F8D39D"/>
<path d="M14.7374 21.4998H21.0834C21.7738 21.4998 22.3334 20.9402 22.3334 20.2498C22.3334 19.5595 21.7738 18.9998 21.0834 18.9998H15.5757C15.1032 18.9998 14.6529 18.7993 14.3369 18.4481L8.16127 11.5863C7.71127 11.0863 6.93402 11.0659 6.45836 11.5416C6.0152 11.9847 5.99824 12.6978 6.41981 13.1615L13.5041 20.9543C13.82 21.3017 14.2678 21.4998 14.7374 21.4998Z" stroke="#865A19" stroke-width="1.25" stroke-linecap="round" stroke-linejoin="round"/>
<path d="M18.2596 14.9492L21.5001 18.9999H14.8335L7.92104 11.3194C7.60164 10.9645 7.04997 10.95 6.71237 11.2876L6.50012 11.4999L9.55454 6.61279C9.95431 5.97315 10.9304 6.15138 11.0784 6.89103L11.5001 8.99986H13.0406C13.1229 8.99986 13.2033 8.97551 13.2718 8.92988L13.8512 8.54359C14.7656 7.934 16.0093 8.36074 16.3568 9.4033L18.1198 14.6922C18.1509 14.7855 18.1982 14.8725 18.2596 14.9492Z" stroke="#865A19" stroke-width="1.25" stroke-linecap="round" stroke-linejoin="round"/>
<path d="M16.5001 11.4999L13.1667 12.3332" stroke="#865A19" stroke-width="1.25" stroke-linecap="round" stroke-linejoin="round"/>
<path d="M13.8485 13.3935C13.5137 13.4772 13.3101 13.8166 13.3938 14.1514C13.4775 14.4863 13.8168 14.6899 14.1517 14.6062L13.8485 13.3935ZM17.1819 12.5602L13.8485 13.3935L14.1517 14.6062L17.485 13.7728L17.1819 12.5602Z" fill="#865A19"/>
<path d="M9.83341 21.4999H5.66675" stroke="#865A19" stroke-width="1.25" stroke-linecap="round" stroke-linejoin="round"/>
<path d="M7.33341 18.9999H5.66675" stroke="#865A19" stroke-width="1.25" stroke-linecap="round" stroke-linejoin="round"/>
</svg>
